<svg width="75" height="96" viewBox="0 0 75 96" fill="none" xmlns="http://www.w3.org/2000/svg">
<rect x="0.762939" y="12.7419" width="68.6149" height="82.2775" rx="5" fill="#1E38C1"/>
<path d="M74.5259 83.2568C74.5259 86.0182 72.2873 88.2568 69.5259 88.2568H12.4875C9.72612 88.2568 7.48755 86.0182 7.48755 83.2568V5.26904C7.48755 2.50762 9.72613 0.269043 12.4875 0.269043H51.5053C52.8314 0.269043 54.1032 0.795827 55.0409 1.73351L73.0614 19.754C73.9991 20.6917 74.5259 21.9635 74.5259 23.2896V83.2568Z" fill="#69A1F8"/>
<rect x="18.6134" y="36.978" width="18.7687" height="6.28484" rx="2" fill="#1E38C1"/>
<rect x="18.6134" y="46.1958" width="42.8191" height="4.02011" rx="2" fill="#1E38C1"/>
<rect x="18.6134" y="53.8809" width="42.819" height="4.02011" rx="2" fill="#1E38C1"/>
<rect x="18.6134" y="61.5657" width="42.819" height="4.02011" rx="2" fill="#1E38C1"/>
<path d="M74.5261 21.2351H53.5601V0.269043L74.5261 21.2351Z" fill="#E9F2FF"/>
</svg>