<svg width="22" height="18" viewBox="0 0 22 18" fill="none" xmlns="http://www.w3.org/2000/svg">
<path d="M16.0559 15.7138C15.765 16.0152 15.3705 16.1845 14.9592 16.1845H2.55102C2.13966 16.1845 1.74516 16.0152 1.45428 15.7138C1.16341 15.4124 1 15.0037 1 14.5775V3.32801C1 2.90179 1.16341 2.49303 1.45428 2.19165C1.74516 1.89026 2.13966 1.72095 2.55102 1.72095H4.99533C5.88865 1.72095 6.72071 2.175 7.20408 2.92625V2.92625C7.68744 3.67749 8.51951 4.13154 9.41282 4.13154H14.9592C15.3705 4.13154 15.765 4.30086 16.0559 4.60224C16.3468 4.90362 16.5102 5.31239 16.5102 5.73861V7.94832" stroke="#697584" stroke-width="2" stroke-linecap="round" stroke-linejoin="round"/>
<path d="M20.9502 8.14917L16.2082 15.5591" stroke="#697584" stroke-width="2" stroke-linecap="round" stroke-linejoin="round"/>
<path fill-rule="evenodd" clip-rule="evenodd" d="M6.15842 7.17088C6.42806 7.09623 6.7156 7.14956 6.99539 7.14956H20.9502C21.5025 7.14956 21.9502 7.59728 21.9502 8.14956C21.9502 8.70185 21.5025 9.14956 20.9502 9.14956H9.93873C8.13169 9.14956 6.46526 10.1246 5.57993 11.6999L3.19017 15.9521C2.91958 16.4336 2.31689 16.5926 1.84401 16.3073C1.37113 16.0219 1.20714 15.4004 1.47772 14.9189L5.53918 7.69215C5.55029 7.6706 5.56215 7.6495 5.57474 7.6289C5.7081 7.39412 5.92072 7.23669 6.15842 7.17088Z" fill="#697584"/>
</svg>
