<svg width="16" height="16" viewBox="0 0 16 16" fill="none" xmlns="http://www.w3.org/2000/svg">
<path d="M12.8529 7.30664H3.14726C2.38151 7.30664 1.76074 7.92741 1.76074 8.69316V13.546C1.76074 14.3117 2.38151 14.9325 3.14726 14.9325H12.8529C13.6187 14.9325 14.2394 14.3117 14.2394 13.546V8.69316C14.2394 7.92741 13.6187 7.30664 12.8529 7.30664Z" stroke="white" stroke-width="2" stroke-linecap="round" stroke-linejoin="round"/>
<path d="M4.53369 7.30672V4.53368C4.53369 3.61436 4.89889 2.7327 5.54895 2.08264C6.199 1.43258 7.08067 1.06738 7.99999 1.06738C8.91931 1.06738 9.80098 1.43258 10.451 2.08264C11.1011 2.7327 11.4663 3.61436 11.4663 4.53368V7.30672" stroke="white" stroke-width="2" stroke-linecap="round" stroke-linejoin="round"/>
</svg>
