<svg width="161" height="41" viewBox="0 0 161 41" fill="none" xmlns="http://www.w3.org/2000/svg">
<path d="M14.0309 39.6415C11.306 39.6415 8.90655 38.9657 6.79175 37.5718C4.67696 36.178 3.05019 34.3195 1.83011 32.0808C0.610038 29.7999 0 27.2656 0 24.5201C0 21.7746 0.569368 19.2825 1.74877 17.0861C2.92818 14.8475 4.55495 13.0312 6.66974 11.6796C8.78454 10.3279 11.184 9.60986 13.9495 9.60986C16.5524 9.60986 18.8298 10.2434 20.7819 11.5106C22.4087 12.4821 23.6695 13.7915 24.6455 15.3543C25.0115 15.9457 24.7269 16.706 24.1168 16.9172L22.4901 17.4663C22.0427 17.593 21.5953 17.424 21.3513 17.0016C20.6193 15.8612 19.6432 14.9319 18.4231 14.2561C17.0404 13.4113 15.495 12.989 13.7869 12.989C11.9161 12.989 10.1673 13.4958 8.66253 14.5095C7.15777 15.5233 5.9377 16.9172 5.04298 18.6912C4.14826 20.423 3.7009 22.4082 3.7009 24.5623C3.7009 26.7588 4.14826 28.744 5.08365 30.518C6.01904 32.292 7.23911 33.7281 8.78454 34.7841C10.33 35.8401 11.9974 36.3469 13.8682 36.3469C15.0883 36.3469 16.2677 36.1357 17.4064 35.6711C18.5451 35.2065 19.5212 34.6151 20.3346 33.8971C20.904 33.348 21.3513 32.7566 21.6767 32.1653C21.88 31.7429 22.368 31.5317 22.8154 31.6584L24.4422 32.1653C25.0522 32.3343 25.3369 33.0523 25.0522 33.6437C24.5642 34.5729 23.9135 35.4177 23.1001 36.2202C21.9614 37.2762 20.6193 38.1632 19.0332 38.7545C17.4877 39.3459 15.7796 39.6415 14.0309 39.6415Z" fill="#222F3E"/>
<path d="M60.6785 38.4586L50.1858 11.5948C49.9012 10.919 50.3892 10.1587 51.1212 10.1587H52.748C53.1547 10.1587 53.5207 10.4121 53.6834 10.8345L62.3459 33.7279C62.5493 34.3192 63.3627 34.3192 63.566 33.7279L72.2692 10.8345C72.4319 10.4544 72.7979 10.1587 73.2046 10.1587H74.628C75.3194 10.1587 75.8074 10.919 75.5634 11.5948L65.0708 38.4586C64.9081 38.8387 64.5421 39.0922 64.1354 39.0922H61.5732C61.1665 39.1344 60.8005 38.881 60.6785 38.4586Z" fill="#222F3E"/>
<path d="M88.7401 39.6415C86.0559 39.6415 83.6564 38.9657 81.5823 37.5718C79.4675 36.2202 77.8 34.3617 76.6206 32.0808C75.4006 29.7999 74.7905 27.2656 74.7905 24.5201C74.7905 21.8168 75.3599 19.3248 76.5393 17.0861C77.7594 14.8475 79.4268 13.0312 81.5009 11.6796C83.6157 10.3279 85.9746 9.60986 88.6587 9.60986C91.4242 9.60986 93.8237 10.2857 95.8978 11.6796C97.972 13.0312 99.5581 14.8475 100.697 17.1283C101.876 19.367 102.446 21.7746 102.446 24.4779C102.446 24.6468 102.446 24.8158 102.446 24.9425C102.446 25.4916 101.998 25.9562 101.429 25.9562H79.2641C78.8574 25.9562 78.5321 26.3364 78.6134 26.7165C78.8575 28.4905 79.3861 30.0956 80.2402 31.4895C81.2163 33.0946 82.4363 34.3617 83.9411 35.3332C85.4459 36.2625 87.0726 36.7271 88.8621 36.7271C90.6922 36.7271 92.4003 36.2625 93.9864 35.291C95.3691 34.4884 96.3859 33.4325 97.0772 32.1653C97.2806 31.7852 97.7686 31.6162 98.1753 31.7007L99.3547 32.0386C99.9648 32.2075 100.29 32.9678 99.9648 33.5592C99.4361 34.4884 98.7447 35.3754 97.85 36.1357C96.6706 37.1917 95.2878 38.0787 93.7424 38.6701C92.2783 39.3459 90.5702 39.6415 88.7401 39.6415ZM79.2235 23.2529H99.07C98.9074 21.1833 98.3787 19.367 97.4026 17.7619C96.4265 16.1146 95.2065 14.8897 93.7017 14.0027C92.1969 13.0734 90.5295 12.6088 88.7401 12.6088C86.9099 12.6088 85.2832 13.0734 83.7784 14.0027C82.2737 14.8897 81.0536 16.1569 80.0775 17.7619C79.2641 19.1558 78.7354 20.7186 78.5321 22.4927C78.4914 22.8728 78.8168 23.2529 79.2235 23.2529Z" fill="#222F3E"/>
<path d="M118.266 36.7691C118.429 37.276 118.185 37.8251 117.697 38.0363C117.29 38.2052 116.802 38.4164 116.192 38.6698C115.053 39.1345 113.752 39.3879 112.247 39.3879C110.661 39.3879 109.319 38.9233 108.139 37.994C106.96 37.0648 106.391 35.6709 106.391 33.8124V13.8335C106.391 13.4534 106.106 13.1577 105.74 13.1577H103.544C102.974 13.1577 102.527 12.6931 102.527 12.1017V11.1725C102.527 10.5811 102.974 10.1165 103.544 10.1165H105.74C106.106 10.1165 106.391 9.82083 106.391 9.44069V1.41534C106.391 0.824 106.838 0.359375 107.407 0.359375H109.034C109.604 0.359375 110.051 0.824 110.051 1.41534V9.48292C110.051 9.86307 110.336 10.1587 110.702 10.1587H115.46C116.029 10.1587 116.477 10.6234 116.477 11.2147V12.144C116.477 12.7353 116.029 13.1999 115.46 13.1999H110.702C110.336 13.1999 110.051 13.4956 110.051 13.8757V32.8409C110.132 33.8969 110.498 34.6994 111.108 35.2485C111.8 35.7131 112.572 35.9666 113.426 35.9666C114.443 35.9666 115.297 35.7976 116.111 35.4597C116.314 35.3752 116.517 35.2907 116.68 35.2063C117.209 34.9528 117.859 35.2485 118.022 35.8398L118.266 36.7691Z" fill="#222F3E"/>
<path d="M133.517 36.7691C133.68 37.276 133.436 37.8251 132.948 38.0363C132.541 38.2052 132.053 38.4164 131.443 38.6698C130.304 39.1345 129.003 39.3879 127.498 39.3879C125.912 39.3879 124.57 38.9233 123.39 37.994C122.211 37.0648 121.642 35.6709 121.642 33.8124V13.8335C121.642 13.4534 121.357 13.1577 120.991 13.1577H118.754C118.185 13.1577 117.737 12.6931 117.737 12.1017V11.1725C117.737 10.5811 118.185 10.1165 118.754 10.1165H120.95C121.316 10.1165 121.601 9.82083 121.601 9.44069V1.41534C121.601 0.824 122.048 0.359375 122.618 0.359375H124.244C124.814 0.359375 125.261 0.824 125.261 1.41534V9.48292C125.261 9.86307 125.546 10.1587 125.912 10.1587H130.67C131.239 10.1587 131.687 10.6234 131.687 11.2147V12.144C131.687 12.7353 131.239 13.1999 130.67 13.1999H125.912C125.546 13.1999 125.261 13.4956 125.261 13.8757V32.8409C125.342 33.8969 125.708 34.6994 126.319 35.2485C127.01 35.7131 127.783 35.9666 128.637 35.9666C129.653 35.9666 130.507 35.7976 131.321 35.4597C131.524 35.3752 131.727 35.2907 131.89 35.2063C132.419 34.9528 133.07 35.2485 133.232 35.8398L133.517 36.7691Z" fill="#222F3E"/>
<path d="M146.409 39.4721C143.725 39.4721 141.325 38.7963 139.251 37.4024C137.136 36.0508 135.469 34.1923 134.29 31.9114C133.07 29.6305 132.459 27.0962 132.459 24.3507C132.459 21.6474 133.029 19.1553 134.208 16.9167C135.428 14.678 137.096 12.8618 139.17 11.5101C141.285 10.1585 143.643 9.44043 146.328 9.44043C149.093 9.44043 151.493 10.1162 153.567 11.5101C155.641 12.8618 157.227 14.678 158.366 16.9589C159.545 19.1976 160.115 21.6052 160.115 24.3084C160.115 24.4774 160.115 24.6463 160.115 24.7731C160.115 25.3222 159.667 25.7868 159.098 25.7868H136.933C136.526 25.7868 136.201 26.1669 136.282 26.5471C136.526 28.3211 137.055 29.8839 137.909 31.3201C138.885 32.9251 140.105 34.1923 141.61 35.1638C143.115 36.093 144.742 36.5576 146.531 36.5576C148.361 36.5576 150.069 36.093 151.655 35.1215C153.038 34.319 154.055 33.263 154.746 31.9959C154.95 31.6157 155.438 31.4468 155.844 31.5312L157.024 31.8692C157.634 32.0381 157.959 32.7984 157.634 33.3897C157.105 34.319 156.414 35.206 155.519 35.9663C154.339 37.0223 152.957 37.9093 151.411 38.5006C149.907 39.1764 148.198 39.4721 146.409 39.4721ZM136.852 23.0835H155.966C156.373 23.0835 156.698 22.7034 156.617 22.3232C156.414 20.5492 155.885 18.9864 155.031 17.5925C154.055 15.9452 152.835 14.7203 151.33 13.8332C149.825 12.904 148.158 12.4394 146.368 12.4394C144.538 12.4394 142.911 12.904 141.407 13.8332C139.902 14.7203 138.682 15.9874 137.706 17.5925C136.892 18.9864 136.364 20.5492 136.16 22.3232C136.16 22.7456 136.486 23.0835 136.852 23.0835Z" fill="#222F3E"/>
<path d="M47.583 9.94734L50.4298 34.0656C50.7145 36.3465 49.1284 38.4162 46.9323 38.7119L34.0808 40.3592C31.8847 40.6548 29.8919 39.0075 29.6072 36.7266L26.7197 12.3972C26.679 11.9748 26.9637 11.5524 27.4111 11.5102L29.4852 11.2567C29.8919 11.2145 30.2986 11.5102 30.3392 11.9748L33.0234 34.5725C33.1454 35.7129 34.1621 36.5155 35.2602 36.3887L44.8988 35.1638C45.9969 35.0371 46.7696 33.9811 46.6476 32.8407L43.9634 10.1585C43.9227 9.73615 44.2074 9.31376 44.6548 9.27152L46.5256 9.01809C47.0136 8.93361 47.5423 9.356 47.583 9.94734Z" fill="#ACBAC9"/>
<path d="M43.3533 32.9251L36.2362 33.8121C35.7482 33.8965 35.2602 33.5164 35.2195 32.9673L34.3248 25.4911L33.7147 20.2535C33.6741 20.0423 33.8774 19.9156 34.0401 19.9578L35.0975 20.2957C37.2123 20.9293 39.4491 20.887 41.5232 20.0845L42.3773 19.7466C42.5399 19.7044 42.7026 19.7888 42.7026 19.9578L44.0854 31.8269C44.2074 32.376 43.8414 32.8828 43.3533 32.9251Z" fill="#0B66EF"/>
</svg>
