<svg width="16" height="20" viewBox="0 0 16 20" fill="none" xmlns="http://www.w3.org/2000/svg">
<mask id="path-1-inside-1_2216_186" fill="white">
<path d="M0 10C0 10.2761 0.223877 10.5 0.5 10.5H9.29303L6.64648 13.1465C6.55273 13.2402 6.50006 13.3674 6.50006 13.4999C6.5 13.7761 6.72388 13.9999 7 14C7.13263 14.0001 7.25983 13.9474 7.35345 13.8535L10.8535 10.3535C10.8534 10.3536 10.8535 10.3535 10.8535 10.3535C11.0486 10.1583 11.0487 9.84167 10.8535 9.64655L7.35345 6.14655C7.15973 5.95941 6.85254 5.95941 6.65875 6.14655C6.46014 6.33838 6.45465 6.65491 6.64648 6.85352L9.29303 9.5H0.5C0.223877 9.5 0 9.72388 0 10ZM13.5 0H2.5C1.11981 0.0012817 0.0012817 1.11981 0 2.5V6.5C0 6.77612 0.223877 7 0.5 7C0.776123 7 1 6.77612 1 6.5V2.5C1.00092 1.67194 1.67194 1.00092 2.5 1H13.5C14.3281 1.00092 14.9991 1.67194 15 2.5V17.5C14.9991 18.3281 14.3281 18.9991 13.5 19H2.5C1.67194 18.9991 1.00092 18.3281 1 17.5V13.5C1 13.2239 0.776123 13 0.5 13C0.223877 13 0 13.2239 0 13.5V17.5C0.0012817 18.8802 1.11981 19.9987 2.5 20H13.5C14.8802 19.9987 15.9987 18.8802 16 17.5V2.5C15.9987 1.11981 14.8802 0.0012817 13.5 0Z"/>
</mask>
<path d="M0 10C0 10.2761 0.223877 10.5 0.5 10.5H9.29303L6.64648 13.1465C6.55273 13.2402 6.50006 13.3674 6.50006 13.4999C6.5 13.7761 6.72388 13.9999 7 14C7.13263 14.0001 7.25983 13.9474 7.35345 13.8535L10.8535 10.3535C10.8534 10.3536 10.8535 10.3535 10.8535 10.3535C11.0486 10.1583 11.0487 9.84167 10.8535 9.64655L7.35345 6.14655C7.15973 5.95941 6.85254 5.95941 6.65875 6.14655C6.46014 6.33838 6.45465 6.65491 6.64648 6.85352L9.29303 9.5H0.5C0.223877 9.5 0 9.72388 0 10ZM13.5 0H2.5C1.11981 0.0012817 0.0012817 1.11981 0 2.5V6.5C0 6.77612 0.223877 7 0.5 7C0.776123 7 1 6.77612 1 6.5V2.5C1.00092 1.67194 1.67194 1.00092 2.5 1H13.5C14.3281 1.00092 14.9991 1.67194 15 2.5V17.5C14.9991 18.3281 14.3281 18.9991 13.5 19H2.5C1.67194 18.9991 1.00092 18.3281 1 17.5V13.5C1 13.2239 0.776123 13 0.5 13C0.223877 13 0 13.2239 0 13.5V17.5C0.0012817 18.8802 1.11981 19.9987 2.5 20H13.5C14.8802 19.9987 15.9987 18.8802 16 17.5V2.5C15.9987 1.11981 14.8802 0.0012817 13.5 0Z" fill="#566474"/>
<path d="M9.29303 10.5L10.0001 11.2071L11.7073 9.5H9.29303V10.5ZM6.64648 13.1465L5.93939 12.4394L5.93938 12.4394L6.64648 13.1465ZM6.50006 13.4999L7.50006 13.5002V13.4999H6.50006ZM7 14L7.00092 13H7.00022L7 14ZM7.35345 13.8535L6.64635 13.1464L6.6452 13.1476L7.35345 13.8535ZM10.8535 9.64655L10.1463 10.3537L10.1466 10.3539L10.8535 9.64655ZM7.35345 6.14655L8.06056 5.43944L8.05444 5.43332L8.04822 5.42731L7.35345 6.14655ZM6.65875 6.14655L5.9641 5.4272L5.96402 5.42728L6.65875 6.14655ZM6.64648 6.85352L5.92722 7.54825L5.93325 7.55449L5.93939 7.56063L6.64648 6.85352ZM9.29303 9.5V10.5H11.7073L10.0001 8.79288L9.29303 9.5ZM13.5 0L13.5009 -1H13.5V0ZM2.5 0V-1L2.49907 -1L2.5 0ZM0 2.5L-1 2.49907V2.5H0ZM1 2.5L0 2.49889V2.5H1ZM2.5 1V-6.11165e-07L2.49889 6.11165e-07L2.5 1ZM13.5 1L13.5011 0H13.5V1ZM15 2.5H16L16 2.49889L15 2.5ZM15 17.5L16 17.5011V17.5H15ZM13.5 19V20H13.5011L13.5 19ZM2.5 19L2.49889 20H2.5V19ZM1 17.5H-6.11165e-07L6.11165e-07 17.5011L1 17.5ZM0 17.5H-1L-1 17.5009L0 17.5ZM2.5 20L2.49907 21H2.5V20ZM13.5 20V21H13.5009L13.5 20ZM16 17.5L17 17.5009V17.5H16ZM16 2.5H17V2.49907L16 2.5ZM-1 10C-1 10.8284 -0.328408 11.5 0.5 11.5V9.5C0.776162 9.5 1 9.72384 1 10H-1ZM0.5 11.5H9.29303V9.5H0.5V11.5ZM8.58593 9.79288L5.93939 12.4394L7.35358 13.8536L10.0001 11.2071L8.58593 9.79288ZM5.93938 12.4394C5.65814 12.7206 5.50006 13.1021 5.50006 13.4999H7.50006C7.50006 13.6327 7.44732 13.7599 7.35359 13.8536L5.93938 12.4394ZM5.50006 13.4997C5.49988 14.3284 6.17163 14.9998 6.99978 15L7.00022 13C7.27612 13.0001 7.50012 13.2237 7.50006 13.5002L5.50006 13.4997ZM6.99908 15C7.39747 15.0004 7.77999 14.8421 8.06171 14.5595L6.6452 13.1476C6.73967 13.0528 6.86779 12.9999 7.00092 13L6.99908 15ZM8.06056 14.5606L11.5606 11.0606L10.1463 9.64641L6.64635 13.1464L8.06056 14.5606ZM11.5606 11.0606C11.5605 11.0606 11.5605 11.0607 11.5605 11.0607C11.5604 11.0607 11.5603 11.0608 11.5602 11.061C11.5602 11.061 11.5601 11.0611 11.5599 11.0613C11.5599 11.0613 11.5594 11.0618 11.5588 11.0624C11.5586 11.0626 11.5582 11.063 11.5578 11.0634C11.5575 11.0637 11.5563 11.0648 11.5548 11.0663C11.5543 11.0668 11.5521 11.069 11.5493 11.0717C11.5475 11.0734 11.5425 11.0782 11.5392 11.0813C11.5309 11.089 11.4618 11.1472 11.3972 11.1927C10.1096 11.0218 10.0968 9.69967 10.1173 9.67674C10.1226 9.67101 10.1304 9.66275 10.1328 9.66018C10.1343 9.65872 10.1366 9.65631 10.1375 9.65536C10.1382 9.6547 10.1393 9.65356 10.1397 9.65307C10.1415 9.65133 10.1428 9.64997 10.143 9.64976C10.1435 9.64927 10.1439 9.64888 10.1441 9.64869C10.1445 9.64828 10.1448 9.64796 10.1449 9.64784C10.1452 9.64756 10.1454 9.64734 10.1455 9.64728C10.1456 9.64718 10.1457 9.6471 10.1457 9.64706C10.1458 9.64697 10.1459 9.6469 10.1459 9.64687C10.146 9.64679 10.146 9.64674 10.1461 9.6467C10.1461 9.64666 10.1462 9.6466 10.1462 9.64653C10.1463 9.6465 10.1463 9.64643 10.1464 9.64634C10.1465 9.64629 10.1465 9.64622 10.1466 9.64612C10.1467 9.64605 10.1469 9.64584 10.1472 9.64556C10.1473 9.64543 10.1476 9.64511 10.1481 9.64471C10.1483 9.64451 10.1486 9.64412 10.1491 9.64363C10.1494 9.64342 10.1508 9.64203 10.1525 9.64027C10.153 9.63977 10.1542 9.6386 10.1549 9.63792C10.1559 9.63695 10.1585 9.63447 10.1601 9.63295C10.1629 9.63026 10.1723 9.62142 10.1789 9.61533C10.2106 9.58755 11.5535 9.63944 11.6578 10.9477C11.6268 10.9875 11.5872 11.0329 11.5806 11.04C11.5778 11.0429 11.5735 11.0475 11.5719 11.0491C11.5693 11.0518 11.5672 11.0539 11.5667 11.0544C11.5653 11.0559 11.5641 11.057 11.5639 11.0573C11.5635 11.0577 11.5631 11.0581 11.5629 11.0582C11.5623 11.0589 11.5618 11.0594 11.5618 11.0594C11.5616 11.0595 11.5615 11.0597 11.5615 11.0597C11.5614 11.0598 11.5613 11.0599 11.5612 11.06C11.5612 11.06 11.5612 11.06 11.5611 11.06L10.1458 9.64699C10.1458 9.647 10.1456 9.64715 10.1454 9.64735C10.1454 9.6474 10.1452 9.64752 10.1451 9.64767C10.1451 9.64769 10.1446 9.64819 10.1439 9.64882C10.1438 9.64901 10.1434 9.64936 10.143 9.64981C10.1427 9.65005 10.1416 9.65119 10.1402 9.65266C10.1397 9.65316 10.1376 9.65526 10.135 9.65795C10.1334 9.65958 10.129 9.66416 10.1262 9.66712C10.1196 9.67418 10.0801 9.71953 10.0491 9.75937C10.1534 11.0676 11.4963 11.1195 11.528 11.0917C11.5346 11.0856 11.544 11.0768 11.5468 11.0741C11.5484 11.0726 11.5509 11.0701 11.5519 11.0691C11.5526 11.0685 11.5538 11.0673 11.5543 11.0668C11.5561 11.065 11.5575 11.0636 11.5577 11.0634C11.5582 11.0629 11.5586 11.0626 11.5588 11.0624C11.5592 11.062 11.5596 11.0616 11.5597 11.0615C11.56 11.0612 11.5602 11.061 11.5602 11.0609C11.5603 11.0608 11.5604 11.0608 11.5605 11.0607C11.5606 11.0606 11.5606 11.0606 11.5607 11.0605C11.5607 11.0604 11.5608 11.0604 11.5609 11.0603C11.5609 11.0603 11.561 11.0602 11.561 11.0601C11.5611 11.0601 11.5611 11.06 11.5612 11.0599C11.5613 11.0599 11.5614 11.0598 11.5615 11.0597C11.5615 11.0597 11.5617 11.0594 11.562 11.0592C11.5621 11.059 11.5625 11.0587 11.5629 11.0583C11.5631 11.0581 11.5634 11.0577 11.5639 11.0572C11.5641 11.057 11.5655 11.0557 11.5672 11.0539C11.5677 11.0534 11.5688 11.0523 11.5694 11.0516C11.5704 11.0507 11.5727 11.0483 11.5741 11.0468C11.5766 11.0443 11.5844 11.036 11.5897 11.0303C11.6101 11.0073 11.5974 9.68522 10.3097 9.51425C10.2452 9.55981 10.176 9.61795 10.1677 9.62568C10.1644 9.62877 10.1594 9.63357 10.1577 9.63526C10.1548 9.63802 10.1526 9.6402 10.1521 9.64069C10.1506 9.64217 10.1494 9.64334 10.1492 9.64358C10.1487 9.64403 10.1484 9.64438 10.1482 9.64457C10.1476 9.6452 10.147 9.64571 10.147 9.64573C10.1469 9.64588 10.1468 9.646 10.1467 9.64605C10.1465 9.64624 10.1464 9.6464 10.1463 9.64641L11.5606 11.0606ZM11.5608 11.0604C12.1457 10.4751 12.1468 9.52532 11.5603 8.93922L10.1466 10.3539C9.9506 10.158 9.95143 9.84145 10.1461 9.64663L11.5608 11.0604ZM11.5606 8.93944L8.06056 5.43944L6.64635 6.85365L10.1463 10.3537L11.5606 8.93944ZM8.04822 5.42731C7.4669 4.86577 6.54533 4.86592 5.9641 5.4272L7.3534 6.86589C7.15974 7.0529 6.85256 7.05306 6.65869 6.86578L8.04822 5.42731ZM5.96402 5.42728C5.36817 6.0028 5.35169 6.9524 5.92722 7.54825L7.36575 6.15878C7.55761 6.35742 7.55212 6.67396 7.35349 6.86581L5.96402 5.42728ZM5.93939 7.56063L8.58593 10.2071L10.0001 8.79288L7.35358 6.1464L5.93939 7.56063ZM9.29303 8.5H0.5V10.5H9.29303V8.5ZM0.5 8.5C-0.328408 8.5 -1 9.17159 -1 10H1C1 10.2762 0.776162 10.5 0.5 10.5V8.5ZM13.5 -1H2.5V1H13.5V-1ZM2.49907 -1C0.567324 -0.998206 -0.998206 0.567324 -1 2.49907L1 2.50093C1.00077 1.6723 1.6723 1.00077 2.50093 1L2.49907 -1ZM-1 2.5V6.5H1V2.5H-1ZM-1 6.5C-1 7.32841 -0.328408 8 0.5 8V6C0.776162 6 1 6.22384 1 6.5H-1ZM0.5 8C1.32841 8 2 7.32841 2 6.5H0C0 6.22384 0.223838 6 0.5 6V8ZM2 6.5V2.5H0V6.5H2ZM2 2.50111C2.00031 2.22446 2.22446 2.00031 2.50111 2L2.49889 6.11165e-07C1.11941 0.00152576 0.00152576 1.11941 6.11165e-07 2.49889L2 2.50111ZM2.5 2H13.5V0H2.5V2ZM13.4989 2C13.7755 2.00031 13.9997 2.22446 14 2.50111L16 2.49889C15.9985 1.11941 14.8806 0.00152576 13.5011 6.11165e-07L13.4989 2ZM14 2.5V17.5H16V2.5H14ZM14 17.4989C13.9997 17.7755 13.7755 17.9997 13.4989 18L13.5011 20C14.8806 19.9985 15.9985 18.8806 16 17.5011L14 17.4989ZM13.5 18H2.5V20H13.5V18ZM2.50111 18C2.22446 17.9997 2.00031 17.7755 2 17.4989L6.11165e-07 17.5011C0.00152576 18.8806 1.11941 19.9985 2.49889 20L2.50111 18ZM2 17.5V13.5H0V17.5H2ZM2 13.5C2 12.6716 1.32841 12 0.5 12V14C0.223838 14 0 13.7762 0 13.5H2ZM0.5 12C-0.328408 12 -1 12.6716 -1 13.5H1C1 13.7762 0.776162 14 0.5 14V12ZM-1 13.5V17.5H1V13.5H-1ZM-1 17.5009C-0.998206 19.4327 0.567324 20.9982 2.49907 21L2.50093 19C1.6723 18.9992 1.00077 18.3277 1 17.4991L-1 17.5009ZM2.5 21H13.5V19H2.5V21ZM13.5009 21C15.4327 20.9982 16.9982 19.4327 17 17.5009L15 17.4991C14.9992 18.3277 14.3277 18.9992 13.4991 19L13.5009 21ZM17 17.5V2.5H15V17.5H17ZM17 2.49907C16.9982 0.567324 15.4327 -0.998206 13.5009 -1L13.4991 1C14.3277 1.00077 14.9992 1.6723 15 2.50093L17 2.49907Z" fill="#566474" mask="url(#path-1-inside-1_2216_186)"/>
</svg>
